PathFileType	4	(X/Y/Z)	outputs\dynamic_markers.trc
DataRate	CameraRate	NumFrames	NumMarkers	Units	OrigDataRate	OrigDataStartFrame	OrigNumFrames
360.000000	360.000000	4	48	m	360.000000	399	639
Frame#	Time	C7			CLAV			LANK			LASI			LBAK			LBHD			LELB			LFHD			LFIN			LFRM			LHEE			LIC			LKNE			LMANK			LMELB			LMKNE			LPSI			LSHO			LTHI			LTIB			LTOE			LUPA			LWRA			LWRB			RANK			RASI			RBAK			RBHD			RELB			RFHD			RFIN			RFRM			RHEE			RIC			RKNE			RMANK			RMELB			RMKNE			RPSI			RSHO			RTHI			RTIB			RTOE			RUPA			RWRA			RWRB			STRN			T10			
		X1	Y1	Z1	X2	Y2	Z2	X3	Y3	Z3	X4	Y4	Z4	X5	Y5	Z5	X6	Y6	Z6	X7	Y7	Z7	X8	Y8	Z8	X9	Y9	Z9	X10	Y10	Z10	X11	Y11	Z11	X12	Y12	Z12	X13	Y13	Z13	X14	Y14	Z14	X15	Y15	Z15	X16	Y16	Z16	X17	Y17	Z17	X18	Y18	Z18	X19	Y19	Z19	X20	Y20	Z20	X21	Y21	Z21	X22	Y22	Z22	X23	Y23	Z23	X24	Y24	Z24	X25	Y25	Z25	X26	Y26	Z26	X27	Y27	Z27	X28	Y28	Z28	X29	Y29	Z29	X30	Y30	Z30	X31	Y31	Z31	X32	Y32	Z32	X33	Y33	Z33	X34	Y34	Z34	X35	Y35	Z35	X36	Y36	Z36	X37	Y37	Z37	X38	Y38	Z38	X39	Y39	Z39	X40	Y40	Z40	X41	Y41	Z41	X42	Y42	Z42	X43	Y43	Z43	X44	Y44	Z44	X45	Y45	Z45	X46	Y46	Z46	X47	Y47	Z47	X48	Y48	Z48	

400	1.108333333333333	0.2273573279380798	1.394614696502686	0.05756179243326187	0.1920545697212219	1.28617000579834	0.1811424940824509	0.5343872308731079	0.2676441967487335	0.8507466316223145	0.5785059332847595	0.9973548650741577	0.159429058432579	0.4418514966964722	1.319571971893311	0.02938291244208813	0.2001900672912598	1.521740198135376	0.06732337176799774	0.5111487507820129	1.362122058868408	0.5138375163078308	0.2417683005332947	1.57844078540802	0.1917914599180222	0.2616682648658752	1.134306192398071	0.7020505666732788	0.4033958315849304	1.273321986198425	0.6000019311904907	0.5406146049499512	0.2204812169075012	0.768824577331543	0.6263568997383118	1.084972977638245	0.1003130301833153	0.5842372179031372	0.6370295882225037	0.4763134717941284	0.4369943737983704	0.2423785626888275	0.8006742596626282	0.555836021900177	1.287654161453247	0.4757740795612335	0.488694429397583	0.5540506839752197	0.424994021654129	0.593902587890625	0.994519829750061	-0.05922257527709007	0.3012201189994812	1.437189102172852	0.2197806835174561	0.6084230542182922	0.7081273198127747	0.4034489393234253	0.6117080450057983	0.5411016941070557	0.552961528301239	0.3617838025093079	0.3202620446681976	0.9194711446762085	0.403363049030304	1.413130044937134	0.3642791211605072	0.3415862619876862	1.149932503700256	0.6318566799163818	0.37779900431633	1.167763710021973	0.7122517228126526	0.04845593869686127	0.09060978889465332	0.0581304058432579	0.3396864533424377	0.9083287715911865	0.01932857185602188	0.2946034073829651	1.238779783248901	-0.0993427112698555	0.06206008791923523	1.499133229255676	0.1212173178792	-0.04357966035604477	0.9575756788253784	-0.06811222434043884	0.0976400300860405	1.551689863204956	0.2486074715852737	0.07191138714551926	0.7877538204193115	0.2373276054859161	-0.008540032431483269	0.8936318159103394	0.07646023482084274	0.1075387820601463	0.07417882978916168	0.003748584073036909	0.3353430330753326	0.9541592001914978	-0.08073693513870239	0.1575363576412201	0.5454245209693909	0.2516722083091736	0.1403002589941025	0.03827719762921333	0.07273904979228973	0.0372951440513134	0.928787887096405	-0.09900066256523132	0.2847274839878082	0.5067877173423767	0.2957974672317505	0.5007377862930298	0.9705608487129211	-0.1047764271497726	0.06850416958332062	1.303212761878967	0.02458369545638561	0.2199376672506332	0.6557506918907166	0.125720277428627	0.1179798915982246	0.4390301108360291	0.165825828909874	0.05615625903010368	0.06441548466682434	0.2798545360565186	0.001827489235438406	1.141002416610718	-0.02311454340815544	0.08549073338508606	0.8041796088218689	0.1707886904478073	-0.000491256476379931	0.7865929007530212	0.1685840934514999	0.3072496056556702	1.107501983642578	0.1713265925645828	0.4822916686534882	1.141600489616394	-0.07561179250478745	
401	1.111111111111111	0.2290950566530228	1.390406608581543	0.05853614211082458	0.1943965256214142	1.281597018241882	0.1818028539419174	0.5473639369010925	0.2626971304416656	0.8501051068305969	0.5816609859466553	0.9933087229728699	0.1587851792573929	0.4436627328395844	1.316251993179321	0.02992844022810459	0.2018317431211472	1.517243266105652	0.06867115944623947	0.5130589008331299	1.361581444740295	0.5142502784729004	0.2428962886333466	1.573810338973999	0.1934173256158829	0.2710846364498138	1.132104873657227	0.7112652063369751	0.4081697762012482	1.272460699081421	0.6040236353874207	0.5520521402359009	0.2156969606876373	0.7682609558105469	0.6290624737739563	1.081266522407532	0.09998303651809692	0.591855525970459	0.6326707005500793	0.4757656455039978	0.449382096529007	0.2378506064414978	0.8017559051513672	0.5580412149429321	1.287526488304138	0.4765644967556	0.496315211057663	0.5492116212844849	0.4249794781208038	0.5963207483291626	0.9911224842071533	-0.0598289780318737	0.3023635745048523	1.43324863910675	0.2202757447957993	0.6149590015411377	0.7039644718170166	0.4025390148162842	0.620554506778717	0.5370480418205261	0.5522019267082214	0.3759509027004242	0.316202312707901	0.9218870401382446	0.4047319889068604	1.410886645317078	0.3645615577697754	0.3494146764278412	1.148271322250366	0.639485776424408	0.3866138458251953	1.168827533721924	0.718831479549408	0.048487339168787	0.09057586640119553	0.05821210145950317	0.3421695828437805	0.9049197435379028	0.01907625608146191	0.2965848445892334	1.235181093215942	-0.09911427646875381	0.06358784437179565	1.494093656539917	0.1221480965614319	-0.04154320806264877	0.9538596272468567	-0.07001073658466339	0.09881000220775604	1.546346783638	0.2497186213731766	0.07206065207719803	0.7714910507202148	0.2297099679708481	-0.007620844058692455	0.8847043514251709	0.07270902395248413	0.1075829863548279	0.07418341934680939	0.003823248436674476	0.3375944793224335	0.9509357810020447	-0.08098743855953217	0.1582490205764771	0.5446984767913818	0.2523404061794281	0.1403158754110336	0.03821687027812004	0.07279811054468155	0.03865572437644005	0.9256359934806824	-0.1016519814729691	0.2852848470211029	0.5058261156082153	0.2970545887947083	0.5031233429908752	0.9671663045883179	-0.1050804555416107	0.07063794136047363	1.298350691795349	0.02569019608199596	0.2213727533817291	0.6540814638137817	0.1260956525802612	0.1186494901776314	0.4386540353298187	0.1665761917829514	0.05607135593891144	0.06439609825611115	0.2798732817173004	0.004037527367472649	1.136598944664001	-0.02314347960054874	0.08556315302848816	0.7909606099128723	0.1638180017471313	-0.0002587570052128285	0.7741640210151672	0.1611220389604568	0.309769332408905	1.103365778923035	0.1717511862516403	0.4845080077648163	1.13829231262207	-0.07585608959197998	
402	1.113888888888889	0.2301836013793945	1.387675404548645	0.05906271561980247	0.1960266083478928	1.278497457504272	0.1823114901781082	0.5561600923538208	0.2593961358070374	0.8495638370513916	0.5835430026054382	0.9909118413925171	0.1586666256189346	0.4449881315231323	1.314040422439575	0.0302591435611248	0.2029119729995728	1.514277935028076	0.06957115978002548	0.5144458413124084	1.361142992973328	0.5144866704940796	0.2437314391136169	1.57074761390686	0.1943220198154449	0.2775034308433533	1.130860805511475	0.7174069881439209	0.4115506410598755	1.271948218345642	0.6065831780433655	0.5598832368850708	0.2124810218811035	0.7674630880355835	0.6310402154922485	1.078839302062988	0.09954066574573517	0.5968525409698486	0.6298934817314148	0.4753026068210602	0.4574517905712128	0.2350348830223083	0.8022927045822144	0.5597549676895142	1.287300229072571	0.4771227836608887	0.5014203786849976	0.5460900068283081	0.4250422418117523	0.597979724407196	0.9888110756874084	-0.06012588739395142	0.3030998706817627	1.430615663528442	0.2205904424190521	0.6193500161170959	0.7012910842895508	0.4020604193210602	0.6263266205787659	0.5344151258468628	0.5517441630363464	0.385753333568573	0.3132457733154297	0.9234022498130798	0.4056743383407593	1.409323573112488	0.3647496104240417	0.3548854887485504	1.14719820022583	0.6445432901382446	0.392436146736145	1.169685363769531	0.7231357097625732	0.04851695522665977	0.09056556969881058	0.05825317651033401	0.3437028229236603	0.9027068614959717	0.01893295720219612	0.2978470325469971	1.232873439788818	-0.09904738515615463	0.0646757185459137	1.490682601928711	0.1227735280990601	-0.04017660766839981	0.9513317346572876	-0.07114429771900177	0.09951841086149216	1.542760014533997	0.2505434453487396	0.07187220454216003	0.7608174085617065	0.2243231981992722	-0.006776299327611923	0.8787286281585693	0.07015623152256012	0.1076193302869797	0.07419610023498535	0.003880137344822288	0.3391138315200806	0.9486938714981079	-0.08128301054239273	0.1588445156812668	0.5442602038383484	0.2528126239776611	0.1403220593929291	0.0381874293088913	0.07284814864397049	0.03964951634407043	0.9234210252761841	-0.1032509356737137	0.2855968475341797	0.5052666664123535	0.2978538274765015	0.5047562718391418	0.9649064540863037	-0.1052775382995605	0.07195410132408142	1.295120000839233	0.02640088647603989	0.2223163545131683	0.653035581111908	0.126237154006958	0.1191000267863274	0.4383772015571594	0.1670677661895752	0.05601141601800919	0.06435781717300415	0.2798843383789062	0.005533009301871061	1.13368809223175	-0.02308954298496246	0.08572156727313995	0.7822453379631042	0.1591172218322754	-0.0002926394517999142	0.7658982276916504	0.1558481156826019	0.3120288252830505	1.100509166717529	0.1715578138828278	0.4861558079719543	1.136112689971924	-0.07586903870105743	
403	1.116666666666667	0.2318533957004547	1.383676409721375	0.05977462232112885	0.198473796248436	1.273934125900269	0.183064877986908	0.5695347189903259	0.254438728094101	0.8487986326217651	0.5865899324417114	0.9873846769332886	0.1583003252744675	0.4468504786491394	1.310629367828369	0.03067504614591599	0.2045475989580154	1.510015845298767	0.07081454992294312	0.51645827293396	1.360450744628906	0.5148998498916626	0.2449258863925934	1.566179275512695	0.1958061009645462	0.2873640954494476	1.129208087921143	0.7266585826873779	0.4166268110275269	1.271054863929749	0.6107462048530579	0.5717399716377258	0.2073575258255005	0.7656241655349731	0.6337825655937195	1.075177431106567	0.09922341257333755	0.6042757630348206	0.6258799433708191	0.4747378528118134	0.4699093699455261	0.2306770384311676	0.8030141592025757	0.5621903538703918	1.286893248558044	0.4779605269432068	0.5090204477310181	0.541606068611145	0.4253129065036774	0.6003991365432739	0.9854291081428528	-0.06065022945404053	0.3044354319572449	1.426507472991943	0.2210036516189575	0.6258977055549622	0.6973187923431396	0.4013126790523529	0.6350730061531067	0.5305706858634949	0.5508507490158081	0.4003764986991882	0.3088473081588745	0.9254666566848755	0.4069242179393768	1.406917572021484	0.3650363683700562	0.3631449639797211	1.145797371864319	0.6522349119186401	0.4014331102371216	1.17112147808075	0.7296484708786011	0.04856511205434799	0.09056448191404343	0.05832915753126144	0.3461790978908539	0.8992711305618286	0.01876302808523178	0.2998890280723572	1.229393482208252	-0.09898359328508377	0.06626597046852112	1.48563289642334	0.1236697286367416	-0.03806981444358826	0.947526752948761	-0.07277075946331024	0.1007345467805862	1.537489175796509	0.2516888976097107	0.07164941728115082	0.7449191808700562	0.2160156220197678	-0.005824951454997063	0.8698471188545227	0.06626632064580917	0.1076764762401581	0.07422506064176559	0.003968680743128061	0.3414020240306854	0.9453971385955811	-0.08146820217370987	0.1598159968852997	0.5435525178909302	0.2535725235939026	0.140321284532547	0.03812805190682411	0.07290136814117432	0.04116369038820267	0.9202038049697876	-0.1056540682911873	0.286175012588501	0.5043106079101562	0.2990446984767914	0.5069912672042847	0.9615047574043274	-0.1056971251964569	0.07408121973276138	1.290328621864319	0.02757931500673294	0.2237549871206284	0.651338517665863	0.1266032755374908	0.1198193579912186	0.4379350543022156	0.1677651405334473	0.05593017488718033	0.06431563943624496	0.2799010574817657	0.007786387111991644	1.12935209274292	-0.02305072173476219	0.08573652803897858	0.7689599990844727	0.1515229344367981	-0.0004686654428951442	0.7535303831100464	0.1477739810943604	0.3151408135890961	1.09633469581604	0.171662226319313	0.4884395897388458	1.132848620414734	-0.07603639364242554	
